<?xml version="1.0" standalone="no"?>
<!DOCTYPE svg PUBLIC "-//W3C//DTD SVG 20010904//EN"
 "http://www.w3.org/TR/2001/REC-SVG-20010904/DTD/svg10.dtd">
<svg version="1.0" xmlns="http://www.w3.org/2000/svg"
 width="512.000000pt" height="512.000000pt" viewBox="0 0 512.000000 512.000000"
 preserveAspectRatio="xMidYMid meet">
<metadata>
Created by potrace 1.14, written by Peter Selinger 2001-2017
</metadata>
<g transform="translate(0.000000,512.000000) scale(0.100000,-0.100000)"
fill="#000000" stroke="none">
<path d="M2365 5114 c-240 -27 -404 -59 -580 -114 -784 -246 -1417 -879 -1665
-1665 -43 -134 -78 -287 -97 -421 -24 -165 -24 -543 0 -710 47 -327 165 -669
326 -939 39 -65 149 -230 174 -261 165 -201 218 -258 353 -374 228 -197 468
-345 729 -449 174 -70 393 -129 585 -158 163 -25 579 -25 740 0 725 111 1353
509 1757 1112 217 325 358 700 410 1085 23 173 23 512 -1 680 -65 466 -248
895 -535 1254 -98 123 -263 292 -361 370 -25 20 -61 49 -80 64 -323 258 -774
447 -1207 507 -106 15 -469 27 -548 19z"/>
</g>
</svg>
